<?xml version="1.0" encoding="UTF-8" standalone="no"?>
<svg xmlns="http://www.w3.org/2000/svg" xmlns:xlink="http://www.w3.org/1999/xlink" contentScriptType="application/ecmascript" contentStyleType="text/css" height="1091px" preserveAspectRatio="none" style="width:1167px;height:1091px;" version="1.1" viewBox="0 0 1167 1091" width="1167px" zoomAndPan="magnify"><defs><filter height="300%" id="fri8qnucpaql" width="300%" x="-1" y="-1"><feGaussianBlur result="blurOut" stdDeviation="2.0"/><feColorMatrix in="blurOut" result="blurOut2" type="matrix" values="0 0 0 0 0 0 0 0 0 0 0 0 0 0 0 0 0 0 .4 0"/><feOffset dx="4.0" dy="4.0" in="blurOut2" result="blurOut3"/><feBlend in="SourceGraphic" in2="blurOut3" mode="normal"/></filter></defs><g><!--MD5=[6aef6f099d291b6de56c83579d66cf45]
class DungeonApplication--><rect fill="#FEFECE" filter="url(#fri8qnucpaql)" height="60.8047" id="DungeonApplication" style="stroke: #A80036; stroke-width: 1.5;" width="158" x="432.5" y="8"/><ellipse cx="447.5" cy="24" fill="#ADD1B2" rx="11" ry="11" style="stroke: #A80036; stroke-width: 1.0;"/><path d="M450.4688,29.6406 Q449.8906,29.9375 449.25,30.0859 Q448.6094,30.2344 447.9063,30.2344 Q445.4063,30.2344 444.0859,28.5859 Q442.7656,26.9375 442.7656,23.8125 Q442.7656,20.6875 444.0859,19.0313 Q445.4063,17.375 447.9063,17.375 Q448.6094,17.375 449.2578,17.5313 Q449.9063,17.6875 450.4688,17.9844 L450.4688,20.7031 Q449.8438,20.125 449.25,19.8516 Q448.6563,19.5781 448.0313,19.5781 Q446.6875,19.5781 446,20.6484 Q445.3125,21.7188 445.3125,23.8125 Q445.3125,25.9063 446,26.9766 Q446.6875,28.0469 448.0313,28.0469 Q448.6563,28.0469 449.25,27.7734 Q449.8438,27.5 450.4688,26.9219 L450.4688,29.6406 Z "/><text fill="#000000" font-family="sans-serif" font-size="12" lengthAdjust="spacingAndGlyphs" textLength="126" x="461.5" y="28.1543">DungeonApplication</text><line style="stroke: #A80036; stroke-width: 1.5;" x1="433.5" x2="589.5" y1="40" y2="40"/><line style="stroke: #A80036; stroke-width: 1.5;" x1="433.5" x2="589.5" y1="48" y2="48"/><ellipse cx="443.5" cy="59" fill="#84BE84" rx="3" ry="3" style="stroke: #038048; stroke-width: 1.0;"/><text fill="#000000" font-family="sans-serif" font-size="11" lengthAdjust="spacingAndGlyphs" textLength="73" x="452.5" y="62.2104">showScene()</text><!--MD5=[1d7ba1c7002d54515419844fbd155368]
class Controller--><rect fill="#FEFECE" filter="url(#fri8qnucpaql)" height="48" id="Controller" style="stroke: #A80036; stroke-width: 1.5;" width="93" x="465" y="129"/><ellipse cx="480" cy="145" fill="#A9DCDF" rx="11" ry="11" style="stroke: #A80036; stroke-width: 1.0;"/><path d="M480.1094,140.3438 L478.9531,145.4219 L481.2813,145.4219 L480.1094,140.3438 Z M478.625,138.1094 L481.6094,138.1094 L484.9688,150.5 L482.5156,150.5 L481.75,147.4375 L478.4688,147.4375 L477.7188,150.5 L475.2813,150.5 L478.625,138.1094 Z "/><text fill="#000000" font-family="sans-serif" font-size="12" font-style="italic" lengthAdjust="spacingAndGlyphs" textLength="61" x="494" y="149.1543">Controller</text><line style="stroke: #A80036; stroke-width: 1.5;" x1="466" x2="557" y1="161" y2="161"/><line style="stroke: #A80036; stroke-width: 1.5;" x1="466" x2="557" y1="169" y2="169"/><!--MD5=[c0bd9f44073f1a51428d87d6a9cf071b]
class Observable--><rect fill="#FEFECE" filter="url(#fri8qnucpaql)" height="60.8047" id="Observable" style="stroke: #A80036; stroke-width: 1.5;" width="102" x="625.5" y="8"/><ellipse cx="640.5" cy="24" fill="#B4A7E5" rx="11" ry="11" style="stroke: #A80036; stroke-width: 1.0;"/><path d="M636.4219,19.7656 L636.4219,17.6094 L643.8125,17.6094 L643.8125,19.7656 L641.3438,19.7656 L641.3438,27.8438 L643.8125,27.8438 L643.8125,30 L636.4219,30 L636.4219,27.8438 L638.8906,27.8438 L638.8906,19.7656 L636.4219,19.7656 Z "/><text fill="#000000" font-family="sans-serif" font-size="12" font-style="italic" lengthAdjust="spacingAndGlyphs" textLength="70" x="654.5" y="28.1543">Observable</text><line style="stroke: #A80036; stroke-width: 1.5;" x1="626.5" x2="726.5" y1="40" y2="40"/><line style="stroke: #A80036; stroke-width: 1.5;" x1="626.5" x2="726.5" y1="48" y2="48"/><ellipse cx="636.5" cy="59" fill="#84BE84" rx="3" ry="3" style="stroke: #038048; stroke-width: 1.0;"/><text fill="#000000" font-family="sans-serif" font-size="11" lengthAdjust="spacingAndGlyphs" textLength="39" x="645.5" y="62.2104">notify()</text><path d="M762.5,26 L762.5,34.5 L727.5215,38.5 L762.5,42.5 L762.5,51.1328 A0,0 0 0 0 762.5,51.1328 L892.5,51.1328 A0,0 0 0 0 892.5,51.1328 L892.5,36 L882.5,26 L762.5,26 A0,0 0 0 0 762.5,26 " fill="#FBFB77" filter="url(#fri8qnucpaql)" style="stroke: #A80036; stroke-width: 1.0;"/><path d="M882.5,26 L882.5,36 L892.5,36 L882.5,26 " fill="#FBFB77" style="stroke: #A80036; stroke-width: 1.0;"/><text fill="#000000" font-family="sans-serif" font-size="13" lengthAdjust="spacingAndGlyphs" textLength="109" x="768.5" y="43.0669">Observer Pattern</text><!--MD5=[70a21aff438036e8c6e27171fb776dee]
class DungeonController--><rect fill="#FEFECE" filter="url(#fri8qnucpaql)" height="48" id="DungeonController" style="stroke: #A80036; stroke-width: 1.5;" width="150" x="436.5" y="243.5"/><ellipse cx="451.5" cy="259.5" fill="#ADD1B2" rx="11" ry="11" style="stroke: #A80036; stroke-width: 1.0;"/><path d="M454.4688,265.1406 Q453.8906,265.4375 453.25,265.5859 Q452.6094,265.7344 451.9063,265.7344 Q449.4063,265.7344 448.0859,264.0859 Q446.7656,262.4375 446.7656,259.3125 Q446.7656,256.1875 448.0859,254.5313 Q449.4063,252.875 451.9063,252.875 Q452.6094,252.875 453.2578,253.0313 Q453.9063,253.1875 454.4688,253.4844 L454.4688,256.2031 Q453.8438,255.625 453.25,255.3516 Q452.6563,255.0781 452.0313,255.0781 Q450.6875,255.0781 450,256.1484 Q449.3125,257.2188 449.3125,259.3125 Q449.3125,261.4063 450,262.4766 Q450.6875,263.5469 452.0313,263.5469 Q452.6563,263.5469 453.25,263.2734 Q453.8438,263 454.4688,262.4219 L454.4688,265.1406 Z "/><text fill="#000000" font-family="sans-serif" font-size="12" lengthAdjust="spacingAndGlyphs" textLength="118" x="465.5" y="263.6543">DungeonController</text><line style="stroke: #A80036; stroke-width: 1.5;" x1="437.5" x2="585.5" y1="275.5" y2="275.5"/><line style="stroke: #A80036; stroke-width: 1.5;" x1="437.5" x2="585.5" y1="283.5" y2="283.5"/><!--MD5=[d0abd5815626a4d286061f5143ce8dbd]
class Dungeon--><rect fill="#FEFECE" filter="url(#fri8qnucpaql)" height="48" id="Dungeon" style="stroke: #A80036; stroke-width: 1.5;" width="89" x="484" y="358"/><ellipse cx="499" cy="374" fill="#ADD1B2" rx="11" ry="11" style="stroke: #A80036; stroke-width: 1.0;"/><path d="M501.9688,379.6406 Q501.3906,379.9375 500.75,380.0859 Q500.1094,380.2344 499.4063,380.2344 Q496.9063,380.2344 495.5859,378.5859 Q494.2656,376.9375 494.2656,373.8125 Q494.2656,370.6875 495.5859,369.0313 Q496.9063,367.375 499.4063,367.375 Q500.1094,367.375 500.7578,367.5313 Q501.4063,367.6875 501.9688,367.9844 L501.9688,370.7031 Q501.3438,370.125 500.75,369.8516 Q500.1563,369.5781 499.5313,369.5781 Q498.1875,369.5781 497.5,370.6484 Q496.8125,371.7188 496.8125,373.8125 Q496.8125,375.9063 497.5,376.9766 Q498.1875,378.0469 499.5313,378.0469 Q500.1563,378.0469 500.75,377.7734 Q501.3438,377.5 501.9688,376.9219 L501.9688,379.6406 Z "/><text fill="#000000" font-family="sans-serif" font-size="12" lengthAdjust="spacingAndGlyphs" textLength="57" x="513" y="378.1543">Dungeon</text><line style="stroke: #A80036; stroke-width: 1.5;" x1="485" x2="572" y1="390" y2="390"/><line style="stroke: #A80036; stroke-width: 1.5;" x1="485" x2="572" y1="398" y2="398"/><!--MD5=[820bb9143ef7f656648bf8997140735b]
class EventListener--><rect fill="#FEFECE" filter="url(#fri8qnucpaql)" height="60.8047" id="EventListener" style="stroke: #A80036; stroke-width: 1.5;" width="117" x="478" y="574"/><ellipse cx="493" cy="590" fill="#B4A7E5" rx="11" ry="11" style="stroke: #A80036; stroke-width: 1.0;"/><path d="M488.9219,585.7656 L488.9219,583.6094 L496.3125,583.6094 L496.3125,585.7656 L493.8438,585.7656 L493.8438,593.8438 L496.3125,593.8438 L496.3125,596 L488.9219,596 L488.9219,593.8438 L491.3906,593.8438 L491.3906,585.7656 L488.9219,585.7656 Z "/><text fill="#000000" font-family="sans-serif" font-size="12" font-style="italic" lengthAdjust="spacingAndGlyphs" textLength="85" x="507" y="594.1543">EventListener</text><line style="stroke: #A80036; stroke-width: 1.5;" x1="479" x2="594" y1="606" y2="606"/><line style="stroke: #A80036; stroke-width: 1.5;" x1="479" x2="594" y1="614" y2="614"/><ellipse cx="489" cy="625" fill="#84BE84" rx="3" ry="3" style="stroke: #038048; stroke-width: 1.0;"/><text fill="#000000" font-family="sans-serif" font-size="11" lengthAdjust="spacingAndGlyphs" textLength="77" x="498" y="628.2104">handle(Event)</text><!--MD5=[be996cdb8e6bf2fc7cb89c555f2cd144]
class Entity--><rect fill="#FEFECE" filter="url(#fri8qnucpaql)" height="48" id="Entity" style="stroke: #A80036; stroke-width: 1.5;" width="67" x="726" y="701.5"/><ellipse cx="741" cy="717.5" fill="#A9DCDF" rx="11" ry="11" style="stroke: #A80036; stroke-width: 1.0;"/><path d="M741.1094,712.8438 L739.9531,717.9219 L742.2813,717.9219 L741.1094,712.8438 Z M739.625,710.6094 L742.6094,710.6094 L745.9688,723 L743.5156,723 L742.75,719.9375 L739.4688,719.9375 L738.7188,723 L736.2813,723 L739.625,710.6094 Z "/><text fill="#000000" font-family="sans-serif" font-size="12" font-style="italic" lengthAdjust="spacingAndGlyphs" textLength="35" x="755" y="721.6543">Entity</text><line style="stroke: #A80036; stroke-width: 1.5;" x1="727" x2="792" y1="733.5" y2="733.5"/><line style="stroke: #A80036; stroke-width: 1.5;" x1="727" x2="792" y1="741.5" y2="741.5"/><!--MD5=[ee084734eb3a5ffad99a0de9980f769b]
class Inventory--><rect fill="#FEFECE" filter="url(#fri8qnucpaql)" height="48" id="Inventory" style="stroke: #A80036; stroke-width: 1.5;" width="89" x="323" y="580.5"/><ellipse cx="338" cy="596.5" fill="#ADD1B2" rx="11" ry="11" style="stroke: #A80036; stroke-width: 1.0;"/><path d="M340.9688,602.1406 Q340.3906,602.4375 339.75,602.5859 Q339.1094,602.7344 338.4063,602.7344 Q335.9063,602.7344 334.5859,601.0859 Q333.2656,599.4375 333.2656,596.3125 Q333.2656,593.1875 334.5859,591.5313 Q335.9063,589.875 338.4063,589.875 Q339.1094,589.875 339.7578,590.0313 Q340.4063,590.1875 340.9688,590.4844 L340.9688,593.2031 Q340.3438,592.625 339.75,592.3516 Q339.1563,592.0781 338.5313,592.0781 Q337.1875,592.0781 336.5,593.1484 Q335.8125,594.2188 335.8125,596.3125 Q335.8125,598.4063 336.5,599.4766 Q337.1875,600.5469 338.5313,600.5469 Q339.1563,600.5469 339.75,600.2734 Q340.3438,600 340.9688,599.4219 L340.9688,602.1406 Z "/><text fill="#000000" font-family="sans-serif" font-size="12" lengthAdjust="spacingAndGlyphs" textLength="57" x="352" y="600.6543">Inventory</text><line style="stroke: #A80036; stroke-width: 1.5;" x1="324" x2="411" y1="612.5" y2="612.5"/><line style="stroke: #A80036; stroke-width: 1.5;" x1="324" x2="411" y1="620.5" y2="620.5"/><!--MD5=[069c87d0cdd281d3add75ad1660d2445]
class PortalNetwork--><rect fill="#FEFECE" filter="url(#fri8qnucpaql)" height="48" id="PortalNetwork" style="stroke: #A80036; stroke-width: 1.5;" width="120" x="589.5" y="466"/><ellipse cx="604.5" cy="482" fill="#ADD1B2" rx="11" ry="11" style="stroke: #A80036; stroke-width: 1.0;"/><path d="M607.4688,487.6406 Q606.8906,487.9375 606.25,488.0859 Q605.6094,488.2344 604.9063,488.2344 Q602.4063,488.2344 601.0859,486.5859 Q599.7656,484.9375 599.7656,481.8125 Q599.7656,478.6875 601.0859,477.0313 Q602.4063,475.375 604.9063,475.375 Q605.6094,475.375 606.2578,475.5313 Q606.9063,475.6875 607.4688,475.9844 L607.4688,478.7031 Q606.8438,478.125 606.25,477.8516 Q605.6563,477.5781 605.0313,477.5781 Q603.6875,477.5781 603,478.6484 Q602.3125,479.7188 602.3125,481.8125 Q602.3125,483.9063 603,484.9766 Q603.6875,486.0469 605.0313,486.0469 Q605.6563,486.0469 606.25,485.7734 Q606.8438,485.5 607.4688,484.9219 L607.4688,487.6406 Z "/><text fill="#000000" font-family="sans-serif" font-size="12" lengthAdjust="spacingAndGlyphs" textLength="88" x="618.5" y="486.1543">PortalNetwork</text><line style="stroke: #A80036; stroke-width: 1.5;" x1="590.5" x2="708.5" y1="498" y2="498"/><line style="stroke: #A80036; stroke-width: 1.5;" x1="590.5" x2="708.5" y1="506" y2="506"/><!--MD5=[0992d3fdc9d3d7c02b735131bb70871d]
class Goal--><rect fill="#FEFECE" filter="url(#fri8qnucpaql)" height="60.8047" id="Goal" style="stroke: #A80036; stroke-width: 1.5;" width="98" x="209.5" y="695"/><ellipse cx="241.6" cy="711" fill="#A9DCDF" rx="11" ry="11" style="stroke: #A80036; stroke-width: 1.0;"/><path d="M241.7094,706.3438 L240.5531,711.4219 L242.8813,711.4219 L241.7094,706.3438 Z M240.225,704.1094 L243.2094,704.1094 L246.5688,716.5 L244.1156,716.5 L243.35,713.4375 L240.0688,713.4375 L239.3188,716.5 L236.8813,716.5 L240.225,704.1094 Z "/><text fill="#000000" font-family="sans-serif" font-size="12" font-style="italic" lengthAdjust="spacingAndGlyphs" textLength="28" x="259.4" y="715.1543">Goal</text><line style="stroke: #A80036; stroke-width: 1.5;" x1="210.5" x2="306.5" y1="727" y2="727"/><line style="stroke: #A80036; stroke-width: 1.5;" x1="210.5" x2="306.5" y1="735" y2="735"/><ellipse cx="220.5" cy="746" fill="#84BE84" rx="3" ry="3" style="stroke: #038048; stroke-width: 1.0;"/><text fill="#000000" font-family="sans-serif" font-size="11" lengthAdjust="spacingAndGlyphs" textLength="72" x="229.5" y="749.2104">isComplete()</text><!--MD5=[99e5d0319d94059708e42fb64bcac062]
class EventManager--><rect fill="#FEFECE" filter="url(#fri8qnucpaql)" height="48" id="EventManager" style="stroke: #A80036; stroke-width: 1.5;" width="122" x="361.5" y="466"/><ellipse cx="376.5" cy="482" fill="#ADD1B2" rx="11" ry="11" style="stroke: #A80036; stroke-width: 1.0;"/><path d="M379.4688,487.6406 Q378.8906,487.9375 378.25,488.0859 Q377.6094,488.2344 376.9063,488.2344 Q374.4063,488.2344 373.0859,486.5859 Q371.7656,484.9375 371.7656,481.8125 Q371.7656,478.6875 373.0859,477.0313 Q374.4063,475.375 376.9063,475.375 Q377.6094,475.375 378.2578,475.5313 Q378.9063,475.6875 379.4688,475.9844 L379.4688,478.7031 Q378.8438,478.125 378.25,477.8516 Q377.6563,477.5781 377.0313,477.5781 Q375.6875,477.5781 375,478.6484 Q374.3125,479.7188 374.3125,481.8125 Q374.3125,483.9063 375,484.9766 Q375.6875,486.0469 377.0313,486.0469 Q377.6563,486.0469 378.25,485.7734 Q378.8438,485.5 379.4688,484.9219 L379.4688,487.6406 Z "/><text fill="#000000" font-family="sans-serif" font-size="12" lengthAdjust="spacingAndGlyphs" textLength="90" x="390.5" y="486.1543">EventManager</text><line style="stroke: #A80036; stroke-width: 1.5;" x1="362.5" x2="482.5" y1="498" y2="498"/><line style="stroke: #A80036; stroke-width: 1.5;" x1="362.5" x2="482.5" y1="506" y2="506"/><!--MD5=[9263abfa7e1a9a56cf52a7c1618e78b9]
class CollectableEntity--><rect fill="#FEFECE" filter="url(#fri8qnucpaql)" height="48" id="CollectableEntity" style="stroke: #A80036; stroke-width: 1.5;" width="136" x="473.5" y="816"/><ellipse cx="488.5" cy="832" fill="#ADD1B2" rx="11" ry="11" style="stroke: #A80036; stroke-width: 1.0;"/><path d="M491.4688,837.6406 Q490.8906,837.9375 490.25,838.0859 Q489.6094,838.2344 488.9063,838.2344 Q486.4063,838.2344 485.0859,836.5859 Q483.7656,834.9375 483.7656,831.8125 Q483.7656,828.6875 485.0859,827.0313 Q486.4063,825.375 488.9063,825.375 Q489.6094,825.375 490.2578,825.5313 Q490.9063,825.6875 491.4688,825.9844 L491.4688,828.7031 Q490.8438,828.125 490.25,827.8516 Q489.6563,827.5781 489.0313,827.5781 Q487.6875,827.5781 487,828.6484 Q486.3125,829.7188 486.3125,831.8125 Q486.3125,833.9063 487,834.9766 Q487.6875,836.0469 489.0313,836.0469 Q489.6563,836.0469 490.25,835.7734 Q490.8438,835.5 491.4688,834.9219 L491.4688,837.6406 Z "/><text fill="#000000" font-family="sans-serif" font-size="12" lengthAdjust="spacingAndGlyphs" textLength="104" x="502.5" y="836.1543">CollectableEntity</text><line style="stroke: #A80036; stroke-width: 1.5;" x1="474.5" x2="608.5" y1="848" y2="848"/><line style="stroke: #A80036; stroke-width: 1.5;" x1="474.5" x2="608.5" y1="856" y2="856"/><!--MD5=[ac13618b1a974308c1f12eb6c57723dc]
class Event--><rect fill="#FEFECE" filter="url(#fri8qnucpaql)" height="60.8047" id="Event" style="stroke: #A80036; stroke-width: 1.5;" width="148" x="768.5" y="237"/><ellipse cx="820.75" cy="253" fill="#A9DCDF" rx="11" ry="11" style="stroke: #A80036; stroke-width: 1.0;"/><path d="M820.8594,248.3438 L819.7031,253.4219 L822.0313,253.4219 L820.8594,248.3438 Z M819.375,246.1094 L822.3594,246.1094 L825.7188,258.5 L823.2656,258.5 L822.5,255.4375 L819.2188,255.4375 L818.4688,258.5 L816.0313,258.5 L819.375,246.1094 Z "/><text fill="#000000" font-family="sans-serif" font-size="12" font-style="italic" lengthAdjust="spacingAndGlyphs" textLength="35" x="841.25" y="257.1543">Event</text><line style="stroke: #A80036; stroke-width: 1.5;" x1="769.5" x2="915.5" y1="269" y2="269"/><line style="stroke: #A80036; stroke-width: 1.5;" x1="769.5" x2="915.5" y1="277" y2="277"/><ellipse cx="779.5" cy="288" fill="#84BE84" rx="3" ry="3" style="stroke: #038048; stroke-width: 1.0;"/><text fill="#000000" font-family="sans-serif" font-size="11" lengthAdjust="spacingAndGlyphs" textLength="122" x="788.5" y="291.2104">accept(EventListener)</text><path d="M621.5,255 L621.5,280.1328 A0,0 0 0 0 621.5,280.1328 L733.5,280.1328 A0,0 0 0 0 733.5,280.1328 L733.5,273 L768.4645,267.5 L733.5,265 L733.5,265 L723.5,255 L621.5,255 A0,0 0 0 0 621.5,255 " fill="#FBFB77" filter="url(#fri8qnucpaql)" style="stroke: #A80036; stroke-width: 1.0;"/><path d="M723.5,255 L723.5,265 L733.5,265 L723.5,255 " fill="#FBFB77" style="stroke: #A80036; stroke-width: 1.0;"/><text fill="#000000" font-family="sans-serif" font-size="13" lengthAdjust="spacingAndGlyphs" textLength="91" x="627.5" y="272.0669">Visitor Pattern</text><path d="M33,713 L33,738.1328 A0,0 0 0 0 33,738.1328 L174,738.1328 A0,0 0 0 0 174,738.1328 L174,731 L209.34,725.5 L174,723 L174,723 L164,713 L33,713 A0,0 0 0 0 33,713 " fill="#FBFB77" filter="url(#fri8qnucpaql)" style="stroke: #A80036; stroke-width: 1.0;"/><path d="M164,713 L164,723 L174,723 L164,713 " fill="#FBFB77" style="stroke: #A80036; stroke-width: 1.0;"/><text fill="#000000" font-family="sans-serif" font-size="13" lengthAdjust="spacingAndGlyphs" textLength="120" x="39" y="730.0669">Composite Pattern</text><!--MD5=[4f474a8acdbedca2d1bc5ac63e6a9ac2]
class BasicGoal--><rect fill="#FEFECE" filter="url(#fri8qnucpaql)" height="48" id="BasicGoal" style="stroke: #A80036; stroke-width: 1.5;" width="93" x="117" y="816"/><ellipse cx="132" cy="832" fill="#A9DCDF" rx="11" ry="11" style="stroke: #A80036; stroke-width: 1.0;"/><path d="M132.1094,827.3438 L130.9531,832.4219 L133.2813,832.4219 L132.1094,827.3438 Z M130.625,825.1094 L133.6094,825.1094 L136.9688,837.5 L134.5156,837.5 L133.75,834.4375 L130.4688,834.4375 L129.7188,837.5 L127.2813,837.5 L130.625,825.1094 Z "/><text fill="#000000" font-family="sans-serif" font-size="12" font-style="italic" lengthAdjust="spacingAndGlyphs" textLength="61" x="146" y="836.1543">BasicGoal</text><line style="stroke: #A80036; stroke-width: 1.5;" x1="118" x2="209" y1="848" y2="848"/><line style="stroke: #A80036; stroke-width: 1.5;" x1="118" x2="209" y1="856" y2="856"/><!--MD5=[fe7bc150a9d340a62869d5efae6bc6ff]
class ComplexGoal--><rect fill="#FEFECE" filter="url(#fri8qnucpaql)" height="48" id="ComplexGoal" style="stroke: #A80036; stroke-width: 1.5;" width="112" x="245.5" y="816"/><ellipse cx="260.5" cy="832" fill="#ADD1B2" rx="11" ry="11" style="stroke: #A80036; stroke-width: 1.0;"/><path d="M263.4688,837.6406 Q262.8906,837.9375 262.25,838.0859 Q261.6094,838.2344 260.9063,838.2344 Q258.4063,838.2344 257.0859,836.5859 Q255.7656,834.9375 255.7656,831.8125 Q255.7656,828.6875 257.0859,827.0313 Q258.4063,825.375 260.9063,825.375 Q261.6094,825.375 262.2578,825.5313 Q262.9063,825.6875 263.4688,825.9844 L263.4688,828.7031 Q262.8438,828.125 262.25,827.8516 Q261.6563,827.5781 261.0313,827.5781 Q259.6875,827.5781 259,828.6484 Q258.3125,829.7188 258.3125,831.8125 Q258.3125,833.9063 259,834.9766 Q259.6875,836.0469 261.0313,836.0469 Q261.6563,836.0469 262.25,835.7734 Q262.8438,835.5 263.4688,834.9219 L263.4688,837.6406 Z "/><text fill="#000000" font-family="sans-serif" font-size="12" lengthAdjust="spacingAndGlyphs" textLength="80" x="274.5" y="836.1543">ComplexGoal</text><line style="stroke: #A80036; stroke-width: 1.5;" x1="246.5" x2="356.5" y1="848" y2="848"/><line style="stroke: #A80036; stroke-width: 1.5;" x1="246.5" x2="356.5" y1="856" y2="856"/><!--MD5=[e35b30aedf70466aeb4d543fffac1690]
class GoalCompletionStrategy--><rect fill="#FEFECE" filter="url(#fri8qnucpaql)" height="48" id="GoalCompletionStrategy" style="stroke: #A80036; stroke-width: 1.5;" width="183" x="210" y="924"/><ellipse cx="225" cy="940" fill="#B4A7E5" rx="11" ry="11" style="stroke: #A80036; stroke-width: 1.0;"/><path d="M220.9219,935.7656 L220.9219,933.6094 L228.3125,933.6094 L228.3125,935.7656 L225.8438,935.7656 L225.8438,943.8438 L228.3125,943.8438 L228.3125,946 L220.9219,946 L220.9219,943.8438 L223.3906,943.8438 L223.3906,935.7656 L220.9219,935.7656 Z "/><text fill="#000000" font-family="sans-serif" font-size="12" font-style="italic" lengthAdjust="spacingAndGlyphs" textLength="151" x="239" y="944.1543">GoalCompletionStrategy</text><line style="stroke: #A80036; stroke-width: 1.5;" x1="211" x2="392" y1="956" y2="956"/><line style="stroke: #A80036; stroke-width: 1.5;" x1="211" x2="392" y1="964" y2="964"/><!--MD5=[da7b6bbee8fe4837cdfabbcfce0e6127]
class AndCompletionStrategy--><rect fill="#FEFECE" filter="url(#fri8qnucpaql)" height="48" id="AndCompletionStrategy" style="stroke: #A80036; stroke-width: 1.5;" width="179" x="6" y="1032"/><ellipse cx="21" cy="1048" fill="#ADD1B2" rx="11" ry="11" style="stroke: #A80036; stroke-width: 1.0;"/><path d="M23.9688,1053.6406 Q23.3906,1053.9375 22.75,1054.0859 Q22.1094,1054.2344 21.4063,1054.2344 Q18.9063,1054.2344 17.5859,1052.5859 Q16.2656,1050.9375 16.2656,1047.8125 Q16.2656,1044.6875 17.5859,1043.0313 Q18.9063,1041.375 21.4063,1041.375 Q22.1094,1041.375 22.7578,1041.5313 Q23.4063,1041.6875 23.9688,1041.9844 L23.9688,1044.7031 Q23.3438,1044.125 22.75,1043.8516 Q22.1563,1043.5781 21.5313,1043.5781 Q20.1875,1043.5781 19.5,1044.6484 Q18.8125,1045.7188 18.8125,1047.8125 Q18.8125,1049.9063 19.5,1050.9766 Q20.1875,1052.0469 21.5313,1052.0469 Q22.1563,1052.0469 22.75,1051.7734 Q23.3438,1051.5 23.9688,1050.9219 L23.9688,1053.6406 Z "/><text fill="#000000" font-family="sans-serif" font-size="12" lengthAdjust="spacingAndGlyphs" textLength="147" x="35" y="1052.1543">AndCompletionStrategy</text><line style="stroke: #A80036; stroke-width: 1.5;" x1="7" x2="184" y1="1064" y2="1064"/><line style="stroke: #A80036; stroke-width: 1.5;" x1="7" x2="184" y1="1072" y2="1072"/><!--MD5=[bdfdbbdf284f397e1e83360df459ffbc]
class OrCompletionStrategy--><rect fill="#FEFECE" filter="url(#fri8qnucpaql)" height="48" id="OrCompletionStrategy" style="stroke: #A80036; stroke-width: 1.5;" width="169" x="220" y="1032"/><ellipse cx="235" cy="1048" fill="#ADD1B2" rx="11" ry="11" style="stroke: #A80036; stroke-width: 1.0;"/><path d="M237.9688,1053.6406 Q237.3906,1053.9375 236.75,1054.0859 Q236.1094,1054.2344 235.4063,1054.2344 Q232.9063,1054.2344 231.5859,1052.5859 Q230.2656,1050.9375 230.2656,1047.8125 Q230.2656,1044.6875 231.5859,1043.0313 Q232.9063,1041.375 235.4063,1041.375 Q236.1094,1041.375 236.7578,1041.5313 Q237.4063,1041.6875 237.9688,1041.9844 L237.9688,1044.7031 Q237.3438,1044.125 236.75,1043.8516 Q236.1563,1043.5781 235.5313,1043.5781 Q234.1875,1043.5781 233.5,1044.6484 Q232.8125,1045.7188 232.8125,1047.8125 Q232.8125,1049.9063 233.5,1050.9766 Q234.1875,1052.0469 235.5313,1052.0469 Q236.1563,1052.0469 236.75,1051.7734 Q237.3438,1051.5 237.9688,1050.9219 L237.9688,1053.6406 Z "/><text fill="#000000" font-family="sans-serif" font-size="12" lengthAdjust="spacingAndGlyphs" textLength="137" x="249" y="1052.1543">OrCompletionStrategy</text><line style="stroke: #A80036; stroke-width: 1.5;" x1="221" x2="388" y1="1064" y2="1064"/><line style="stroke: #A80036; stroke-width: 1.5;" x1="221" x2="388" y1="1072" y2="1072"/><path d="M48,935.5 L48,960.6328 A0,0 0 0 0 48,960.6328 L175,960.6328 A0,0 0 0 0 175,960.6328 L175,953.5 L209.8282,948 L175,945.5 L175,945.5 L165,935.5 L48,935.5 A0,0 0 0 0 48,935.5 " fill="#FBFB77" filter="url(#fri8qnucpaql)" style="stroke: #A80036; stroke-width: 1.0;"/><path d="M165,935.5 L165,945.5 L175,945.5 L165,935.5 " fill="#FBFB77" style="stroke: #A80036; stroke-width: 1.0;"/><text fill="#000000" font-family="sans-serif" font-size="13" lengthAdjust="spacingAndGlyphs" textLength="106" x="54" y="952.5669">Strategy Pattern</text><!--MD5=[ff61424299de7fbd1b7bbdfe7c644dfd]
class Door--><rect fill="#FEFECE" filter="url(#fri8qnucpaql)" height="48" id="Door" style="stroke: #A80036; stroke-width: 1.5;" width="62" x="717.5" y="816"/><ellipse cx="732.5" cy="832" fill="#ADD1B2" rx="11" ry="11" style="stroke: #A80036; stroke-width: 1.0;"/><path d="M735.4688,837.6406 Q734.8906,837.9375 734.25,838.0859 Q733.6094,838.2344 732.9063,838.2344 Q730.4063,838.2344 729.0859,836.5859 Q727.7656,834.9375 727.7656,831.8125 Q727.7656,828.6875 729.0859,827.0313 Q730.4063,825.375 732.9063,825.375 Q733.6094,825.375 734.2578,825.5313 Q734.9063,825.6875 735.4688,825.9844 L735.4688,828.7031 Q734.8438,828.125 734.25,827.8516 Q733.6563,827.5781 733.0313,827.5781 Q731.6875,827.5781 731,828.6484 Q730.3125,829.7188 730.3125,831.8125 Q730.3125,833.9063 731,834.9766 Q731.6875,836.0469 733.0313,836.0469 Q733.6563,836.0469 734.25,835.7734 Q734.8438,835.5 735.4688,834.9219 L735.4688,837.6406 Z "/><text fill="#000000" font-family="sans-serif" font-size="12" lengthAdjust="spacingAndGlyphs" textLength="30" x="746.5" y="836.1543">Door</text><line style="stroke: #A80036; stroke-width: 1.5;" x1="718.5" x2="778.5" y1="848" y2="848"/><line style="stroke: #A80036; stroke-width: 1.5;" x1="718.5" x2="778.5" y1="856" y2="856"/><!--MD5=[91cb52ac8cd9d4314530727d23dea0d9]
class DoorState--><rect fill="#FEFECE" filter="url(#fri8qnucpaql)" height="48" id="DoorState" style="stroke: #A80036; stroke-width: 1.5;" width="96" x="695.5" y="924"/><ellipse cx="710.5" cy="940" fill="#B4A7E5" rx="11" ry="11" style="stroke: #A80036; stroke-width: 1.0;"/><path d="M706.4219,935.7656 L706.4219,933.6094 L713.8125,933.6094 L713.8125,935.7656 L711.3438,935.7656 L711.3438,943.8438 L713.8125,943.8438 L713.8125,946 L706.4219,946 L706.4219,943.8438 L708.8906,943.8438 L708.8906,935.7656 L706.4219,935.7656 Z "/><text fill="#000000" font-family="sans-serif" font-size="12" font-style="italic" lengthAdjust="spacingAndGlyphs" textLength="64" x="724.5" y="944.1543">DoorState</text><line style="stroke: #A80036; stroke-width: 1.5;" x1="696.5" x2="790.5" y1="956" y2="956"/><line style="stroke: #A80036; stroke-width: 1.5;" x1="696.5" x2="790.5" y1="964" y2="964"/><!--MD5=[a830697383ebc6c303aabed12582b0d7]
class OpenDoorState--><rect fill="#FEFECE" filter="url(#fri8qnucpaql)" height="48" id="OpenDoorState" style="stroke: #A80036; stroke-width: 1.5;" width="129" x="510" y="1032"/><ellipse cx="525" cy="1048" fill="#ADD1B2" rx="11" ry="11" style="stroke: #A80036; stroke-width: 1.0;"/><path d="M527.9688,1053.6406 Q527.3906,1053.9375 526.75,1054.0859 Q526.1094,1054.2344 525.4063,1054.2344 Q522.9063,1054.2344 521.5859,1052.5859 Q520.2656,1050.9375 520.2656,1047.8125 Q520.2656,1044.6875 521.5859,1043.0313 Q522.9063,1041.375 525.4063,1041.375 Q526.1094,1041.375 526.7578,1041.5313 Q527.4063,1041.6875 527.9688,1041.9844 L527.9688,1044.7031 Q527.3438,1044.125 526.75,1043.8516 Q526.1563,1043.5781 525.5313,1043.5781 Q524.1875,1043.5781 523.5,1044.6484 Q522.8125,1045.7188 522.8125,1047.8125 Q522.8125,1049.9063 523.5,1050.9766 Q524.1875,1052.0469 525.5313,1052.0469 Q526.1563,1052.0469 526.75,1051.7734 Q527.3438,1051.5 527.9688,1050.9219 L527.9688,1053.6406 Z "/><text fill="#000000" font-family="sans-serif" font-size="12" lengthAdjust="spacingAndGlyphs" textLength="97" x="539" y="1052.1543">OpenDoorState</text><line style="stroke: #A80036; stroke-width: 1.5;" x1="511" x2="638" y1="1064" y2="1064"/><line style="stroke: #A80036; stroke-width: 1.5;" x1="511" x2="638" y1="1072" y2="1072"/><!--MD5=[e63a00e79062e49b60695870026b7779]
class ClosedDoorState--><rect fill="#FEFECE" filter="url(#fri8qnucpaql)" height="48" id="ClosedDoorState" style="stroke: #A80036; stroke-width: 1.5;" width="138" x="674.5" y="1032"/><ellipse cx="689.5" cy="1048" fill="#ADD1B2" rx="11" ry="11" style="stroke: #A80036; stroke-width: 1.0;"/><path d="M692.4688,1053.6406 Q691.8906,1053.9375 691.25,1054.0859 Q690.6094,1054.2344 689.9063,1054.2344 Q687.4063,1054.2344 686.0859,1052.5859 Q684.7656,1050.9375 684.7656,1047.8125 Q684.7656,1044.6875 686.0859,1043.0313 Q687.4063,1041.375 689.9063,1041.375 Q690.6094,1041.375 691.2578,1041.5313 Q691.9063,1041.6875 692.4688,1041.9844 L692.4688,1044.7031 Q691.8438,1044.125 691.25,1043.8516 Q690.6563,1043.5781 690.0313,1043.5781 Q688.6875,1043.5781 688,1044.6484 Q687.3125,1045.7188 687.3125,1047.8125 Q687.3125,1049.9063 688,1050.9766 Q688.6875,1052.0469 690.0313,1052.0469 Q690.6563,1052.0469 691.25,1051.7734 Q691.8438,1051.5 692.4688,1050.9219 L692.4688,1053.6406 Z "/><text fill="#000000" font-family="sans-serif" font-size="12" lengthAdjust="spacingAndGlyphs" textLength="106" x="703.5" y="1052.1543">ClosedDoorState</text><line style="stroke: #A80036; stroke-width: 1.5;" x1="675.5" x2="811.5" y1="1064" y2="1064"/><line style="stroke: #A80036; stroke-width: 1.5;" x1="675.5" x2="811.5" y1="1072" y2="1072"/><path d="M553,935.5 L553,960.6328 A0,0 0 0 0 553,960.6328 L660,960.6328 A0,0 0 0 0 660,960.6328 L660,953.5 L695.2356,948 L660,945.5 L660,945.5 L650,935.5 L553,935.5 A0,0 0 0 0 553,935.5 " fill="#FBFB77" filter="url(#fri8qnucpaql)" style="stroke: #A80036; stroke-width: 1.0;"/><path d="M650,935.5 L650,945.5 L660,945.5 L650,935.5 " fill="#FBFB77" style="stroke: #A80036; stroke-width: 1.0;"/><text fill="#000000" font-family="sans-serif" font-size="13" lengthAdjust="spacingAndGlyphs" textLength="86" x="559" y="952.5669">State Pattern</text><!--MD5=[80c532e980642ebbe770e7ed91e479d0]
class Enemy--><rect fill="#FEFECE" filter="url(#fri8qnucpaql)" height="48" id="Enemy" style="stroke: #A80036; stroke-width: 1.5;" width="73" x="851" y="816"/><ellipse cx="866" cy="832" fill="#ADD1B2" rx="11" ry="11" style="stroke: #A80036; stroke-width: 1.0;"/><path d="M868.9688,837.6406 Q868.3906,837.9375 867.75,838.0859 Q867.1094,838.2344 866.4063,838.2344 Q863.9063,838.2344 862.5859,836.5859 Q861.2656,834.9375 861.2656,831.8125 Q861.2656,828.6875 862.5859,827.0313 Q863.9063,825.375 866.4063,825.375 Q867.1094,825.375 867.7578,825.5313 Q868.4063,825.6875 868.9688,825.9844 L868.9688,828.7031 Q868.3438,828.125 867.75,827.8516 Q867.1563,827.5781 866.5313,827.5781 Q865.1875,827.5781 864.5,828.6484 Q863.8125,829.7188 863.8125,831.8125 Q863.8125,833.9063 864.5,834.9766 Q865.1875,836.0469 866.5313,836.0469 Q867.1563,836.0469 867.75,835.7734 Q868.3438,835.5 868.9688,834.9219 L868.9688,837.6406 Z "/><text fill="#000000" font-family="sans-serif" font-size="12" lengthAdjust="spacingAndGlyphs" textLength="41" x="880" y="836.1543">Enemy</text><line style="stroke: #A80036; stroke-width: 1.5;" x1="852" x2="923" y1="848" y2="848"/><line style="stroke: #A80036; stroke-width: 1.5;" x1="852" x2="923" y1="856" y2="856"/><!--MD5=[20f37b62d46015620efbf556731b1b26]
class EnemyState--><rect fill="#FEFECE" filter="url(#fri8qnucpaql)" height="48" id="EnemyState" style="stroke: #A80036; stroke-width: 1.5;" width="107" x="866" y="924"/><ellipse cx="881" cy="940" fill="#ADD1B2" rx="11" ry="11" style="stroke: #A80036; stroke-width: 1.0;"/><path d="M883.9688,945.6406 Q883.3906,945.9375 882.75,946.0859 Q882.1094,946.2344 881.4063,946.2344 Q878.9063,946.2344 877.5859,944.5859 Q876.2656,942.9375 876.2656,939.8125 Q876.2656,936.6875 877.5859,935.0313 Q878.9063,933.375 881.4063,933.375 Q882.1094,933.375 882.7578,933.5313 Q883.4063,933.6875 883.9688,933.9844 L883.9688,936.7031 Q883.3438,936.125 882.75,935.8516 Q882.1563,935.5781 881.5313,935.5781 Q880.1875,935.5781 879.5,936.6484 Q878.8125,937.7188 878.8125,939.8125 Q878.8125,941.9063 879.5,942.9766 Q880.1875,944.0469 881.5313,944.0469 Q882.1563,944.0469 882.75,943.7734 Q883.3438,943.5 883.9688,942.9219 L883.9688,945.6406 Z "/><text fill="#000000" font-family="sans-serif" font-size="12" lengthAdjust="spacingAndGlyphs" textLength="75" x="895" y="944.1543">EnemyState</text><line style="stroke: #A80036; stroke-width: 1.5;" x1="867" x2="972" y1="956" y2="956"/><line style="stroke: #A80036; stroke-width: 1.5;" x1="867" x2="972" y1="964" y2="964"/><!--MD5=[93304c808f1875a24fb3ab673d18b7a2]
class ChasePlayerState--><rect fill="#FEFECE" filter="url(#fri8qnucpaql)" height="48" id="ChasePlayerState" style="stroke: #A80036; stroke-width: 1.5;" width="143" x="848" y="1032"/><ellipse cx="863" cy="1048" fill="#ADD1B2" rx="11" ry="11" style="stroke: #A80036; stroke-width: 1.0;"/><path d="M865.9688,1053.6406 Q865.3906,1053.9375 864.75,1054.0859 Q864.1094,1054.2344 863.4063,1054.2344 Q860.9063,1054.2344 859.5859,1052.5859 Q858.2656,1050.9375 858.2656,1047.8125 Q858.2656,1044.6875 859.5859,1043.0313 Q860.9063,1041.375 863.4063,1041.375 Q864.1094,1041.375 864.7578,1041.5313 Q865.4063,1041.6875 865.9688,1041.9844 L865.9688,1044.7031 Q865.3438,1044.125 864.75,1043.8516 Q864.1563,1043.5781 863.5313,1043.5781 Q862.1875,1043.5781 861.5,1044.6484 Q860.8125,1045.7188 860.8125,1047.8125 Q860.8125,1049.9063 861.5,1050.9766 Q862.1875,1052.0469 863.5313,1052.0469 Q864.1563,1052.0469 864.75,1051.7734 Q865.3438,1051.5 865.9688,1050.9219 L865.9688,1053.6406 Z "/><text fill="#000000" font-family="sans-serif" font-size="12" lengthAdjust="spacingAndGlyphs" textLength="111" x="877" y="1052.1543">ChasePlayerState</text><line style="stroke: #A80036; stroke-width: 1.5;" x1="849" x2="990" y1="1064" y2="1064"/><line style="stroke: #A80036; stroke-width: 1.5;" x1="849" x2="990" y1="1072" y2="1072"/><!--MD5=[f9dd378880525ec66f8e77f7fe2e02a5]
class FleePlayerState--><rect fill="#FEFECE" filter="url(#fri8qnucpaql)" height="48" id="FleePlayerState" style="stroke: #A80036; stroke-width: 1.5;" width="130" x="1026.5" y="1032"/><ellipse cx="1041.5" cy="1048" fill="#ADD1B2" rx="11" ry="11" style="stroke: #A80036; stroke-width: 1.0;"/><path d="M1044.4688,1053.6406 Q1043.8906,1053.9375 1043.25,1054.0859 Q1042.6094,1054.2344 1041.9063,1054.2344 Q1039.4063,1054.2344 1038.0859,1052.5859 Q1036.7656,1050.9375 1036.7656,1047.8125 Q1036.7656,1044.6875 1038.0859,1043.0313 Q1039.4063,1041.375 1041.9063,1041.375 Q1042.6094,1041.375 1043.2578,1041.5313 Q1043.9063,1041.6875 1044.4688,1041.9844 L1044.4688,1044.7031 Q1043.8438,1044.125 1043.25,1043.8516 Q1042.6563,1043.5781 1042.0313,1043.5781 Q1040.6875,1043.5781 1040,1044.6484 Q1039.3125,1045.7188 1039.3125,1047.8125 Q1039.3125,1049.9063 1040,1050.9766 Q1040.6875,1052.0469 1042.0313,1052.0469 Q1042.6563,1052.0469 1043.25,1051.7734 Q1043.8438,1051.5 1044.4688,1050.9219 L1044.4688,1053.6406 Z "/><text fill="#000000" font-family="sans-serif" font-size="12" lengthAdjust="spacingAndGlyphs" textLength="98" x="1055.5" y="1052.1543">FleePlayerState</text><line style="stroke: #A80036; stroke-width: 1.5;" x1="1027.5" x2="1155.5" y1="1064" y2="1064"/><line style="stroke: #A80036; stroke-width: 1.5;" x1="1027.5" x2="1155.5" y1="1072" y2="1072"/><path d="M1008,935.5 L1008,944 L973.0273,948 L1008,952 L1008,960.6328 A0,0 0 0 0 1008,960.6328 L1115,960.6328 A0,0 0 0 0 1115,960.6328 L1115,945.5 L1105,935.5 L1008,935.5 A0,0 0 0 0 1008,935.5 " fill="#FBFB77" filter="url(#fri8qnucpaql)" style="stroke: #A80036; stroke-width: 1.0;"/><path d="M1105,935.5 L1105,945.5 L1115,945.5 L1105,935.5 " fill="#FBFB77" style="stroke: #A80036; stroke-width: 1.0;"/><text fill="#000000" font-family="sans-serif" font-size="13" lengthAdjust="spacingAndGlyphs" textLength="86" x="1014" y="952.5669">State Pattern</text><!--MD5=[9060a1af62e9add01f46bda3aa014bb7]
reverse link DungeonApplication to Controller--><path d="M499.0585,82.4994 C498.3148,98.2099 498.9156,115.3289 500.8609,128.7634 " fill="none" id="DungeonApplication&lt;-Controller" style="stroke: #A80036; stroke-width: 1.0;"/><polygon fill="#A80036" points="500.0582,69.1839,495.6202,74.8676,499.1598,81.1502,503.5978,75.4665,500.0582,69.1839" style="stroke: #A80036; stroke-width: 1.0;"/><!--MD5=[9060a1af62e9add01f46bda3aa014bb7]
reverse link DungeonApplication to Controller--><path d="M524.1418,74.5566 C525.6373,92.2219 525.1783,113.022 522.7649,128.7634 " fill="none" id="DungeonApplication&lt;-Controller-1" style="stroke: #A80036; stroke-width: 1.0;"/><polygon fill="#A80036" points="523.6149,69.1839,520.5127,78.5314,524.103,74.16,528.4744,77.7504,523.6149,69.1839" style="stroke: #A80036; stroke-width: 1.0;"/><!--MD5=[11377604e1ee669df38ca9ad32394788]
reverse link Observable to Controller--><path d="M615.7681,80.6442 C592.3098,96.9229 566.3225,114.9565 546.1601,128.948 " fill="none" id="Observable&lt;-Controller" style="stroke: #A80036; stroke-width: 1.0; stroke-dasharray: 7.0,7.0;"/><polygon fill="none" points="611.8609,74.8353,632.283,69.1839,619.8425,86.3372,611.8609,74.8353" style="stroke: #A80036; stroke-width: 1.0;"/><!--MD5=[39f3e5012924cb324c2c62ec7002332e]
reverse link Controller to DungeonController--><path d="M511.5,197.0131 C511.5,212.6695 511.5,229.7233 511.5,243.1343 " fill="none" id="Controller&lt;-DungeonController" style="stroke: #A80036; stroke-width: 1.0; stroke-dasharray: 7.0,7.0;"/><polygon fill="none" points="504.5001,197.003,511.5,177.003,518.5001,197.0029,504.5001,197.003" style="stroke: #A80036; stroke-width: 1.0;"/><!--MD5=[77b058b76000f5a0df7cffa643c1b9bc]
reverse link DungeonController to Dungeon--><path d="M516.9822,304.4245 C519.5696,321.8514 522.5858,342.1659 524.8824,357.6343 " fill="none" id="DungeonController&lt;-Dungeon" style="stroke: #A80036; stroke-width: 1.0;"/><polygon fill="#A80036" points="515.0638,291.503,511.9884,298.0254,516.8262,303.3729,519.9016,296.8505,515.0638,291.503" style="stroke: #A80036; stroke-width: 1.0;"/><!--MD5=[7beb7c8459cde2c851949311a2a41c17]
reverse link EventListener to Dungeon--><path d="M534.673,553.6879 C533.0133,507.5268 530.6369,441.4331 529.3714,406.235 " fill="none" id="EventListener&lt;-Dungeon" style="stroke: #A80036; stroke-width: 1.0; stroke-dasharray: 7.0,7.0;"/><polygon fill="none" points="541.6772,553.6793,535.4004,573.9179,527.6862,554.1824,541.6772,553.6793" style="stroke: #A80036; stroke-width: 1.0;"/><!--MD5=[e0c006987a995baf4cb8a9964df82d37]
reverse link Dungeon to Entity--><path d="M586.347,390.6387 C631.8838,400.647 693.0617,421.8336 726.5,466 C780.3668,537.1491 770.9825,651.9644 763.7103,701.4922 " fill="none" id="Dungeon&lt;-Entity" style="stroke: #A80036; stroke-width: 1.0;"/><polygon fill="#A80036" points="573.3608,387.9903,578.4405,393.1086,585.1188,390.3882,580.0391,385.2699,573.3608,387.9903" style="stroke: #A80036; stroke-width: 1.0;"/><!--MD5=[9133f52c7a8a123ff96b8833a85eb8f8]
reverse link Dungeon to Inventory--><path d="M470.748,391.2385 C427.5682,401.4999 371.3722,422.7338 343.5,466 C320.9009,501.0809 339.2011,551.0921 353.8451,580.4353 " fill="none" id="Dungeon&lt;-Inventory" style="stroke: #A80036; stroke-width: 1.0;"/><polygon fill="#A80036" points="483.685,388.3939,476.966,385.7757,471.965,390.9709,478.684,393.5891,483.685,388.3939" style="stroke: #A80036; stroke-width: 1.0;"/><!--MD5=[9709bd767bc5099b1d459ba82121490e]
reverse link Dungeon to PortalNetwork--><path d="M565.4564,414.9858 C583.8315,431.3868 605.6398,450.8521 622.4359,465.8436 " fill="none" id="Dungeon&lt;-PortalNetwork" style="stroke: #A80036; stroke-width: 1.0;"/><polygon fill="#A80036" points="555.6548,406.2373,557.4676,413.2168,564.6074,414.228,562.7947,407.2484,555.6548,406.2373" style="stroke: #A80036; stroke-width: 1.0;"/><!--MD5=[f99be67e78d829858b05646dfd5b49b3]
reverse link Dungeon to Goal--><path d="M470.9928,391.3463 C425.1605,401.7837 362.7015,423.2027 325.5,466 C267.9598,532.1954 258.8305,641.6032 258.0166,694.6966 " fill="none" id="Dungeon&lt;-Goal" style="stroke: #A80036; stroke-width: 1.0;"/><polygon fill="#A80036" points="483.7414,388.6257,477.0387,385.9661,472.0057,391.1303,478.7084,393.7899,483.7414,388.6257" style="stroke: #A80036; stroke-width: 1.0;"/><!--MD5=[ffb38b7c4d92ca4c14197b2a8702fe8d]
reverse link Dungeon to EventManager--><path d="M495.2277,415.9001 C479.3217,432.1062 460.6505,451.1297 446.2091,465.8436 " fill="none" id="Dungeon&lt;-EventManager" style="stroke: #A80036; stroke-width: 1.0;"/><polygon fill="#A80036" points="504.7115,406.2373,497.654,407.7176,496.3059,414.8015,503.3634,413.3213,504.7115,406.2373" style="stroke: #A80036; stroke-width: 1.0;"/><!--MD5=[923cd76f8b928623c3d24b30cd1ea66a]
reverse link EventListener to Entity--><path d="M610.401,644.5988 C649.3915,665.755 695.3296,690.6811 725.8052,707.2172 " fill="none" id="EventListener&lt;-Entity" style="stroke: #A80036; stroke-width: 1.0; stroke-dasharray: 7.0,7.0;"/><polygon fill="none" points="607.0128,650.7245,592.7723,635.0334,613.6897,638.4192,607.0128,650.7245" style="stroke: #A80036; stroke-width: 1.0;"/><!--MD5=[9cd6c1cf8f910587b1d409e9b5df69c1]
reverse link Inventory to CollectableEntity--><path d="M393.279,639.3905 C429.0134,687.7551 492.6872,773.9345 523.632,815.8166 " fill="none" id="Inventory&lt;-CollectableEntity" style="stroke: #A80036; stroke-width: 1.0;"/><polygon fill="#FFFFFF" points="385.4657,628.8156,385.8141,636.0183,392.5968,638.4669,392.2483,631.2642,385.4657,628.8156" style="stroke: #A80036; stroke-width: 1.0;"/><!--MD5=[33a0d6c66c4402fddf90b46af67f594f]
reverse link Entity to CollectableEntity--><path d="M707.9954,752.5517 C671.3505,771.7987 622.5588,797.4255 587.2757,815.9573 " fill="none" id="Entity&lt;-CollectableEntity" style="stroke: #A80036; stroke-width: 1.0;"/><polygon fill="none" points="704.954,746.2424,725.9153,743.1397,711.4639,758.6368,704.954,746.2424" style="stroke: #A80036; stroke-width: 1.0;"/><!--MD5=[6db1f3d9c3deddc8d2e799f0e5fe9b61]
reverse link EventManager to EventListener--><path d="M455.8522,523.4985 C471.7462,539.4622 490.622,558.4208 506.115,573.9818 " fill="none" id="EventManager&lt;-EventListener" style="stroke: #A80036; stroke-width: 1.0;"/><polygon fill="#FFFFFF" points="446.3981,514.003,447.7968,521.0771,454.8648,522.5069,453.4661,515.4327,446.3981,514.003" style="stroke: #A80036; stroke-width: 1.0;"/><!--MD5=[7818a4c9b0c2065fdee2fdae4ad9712a]
link Event to EventListener--><path d="M835.2524,298.3157 C821.8525,349.2281 788.7269,451.4812 726.5,514 C690.1573,550.5132 636.2099,574.2589 595.0755,588.2246 " fill="none" id="Event-EventListener" style="stroke: #A80036; stroke-width: 1.0;"/><!--MD5=[6011bc129e641deba1bb141d86b4eefe]
reverse link Event to Entity--><path d="M840.8626,303.0596 C837.1302,369.3799 825.6701,516.0026 793.5,635 C787.2801,658.0074 777.4994,683.3358 770.0218,701.3315 " fill="none" id="Event&lt;-Entity" style="stroke: #A80036; stroke-width: 1.0;"/><polygon fill="#A80036" points="841.1388,298.0416,836.6501,306.8081,840.8639,303.034,844.638,307.2479,841.1388,298.0416" style="stroke: #A80036; stroke-width: 1.0;"/><!--MD5=[9925b8855635627403e79846e076cf3e]
reverse link Event to Dungeon--><path d="M763.4656,296.3199 C703.3741,318.2322 622.8605,347.5915 573.3908,365.6306 " fill="none" id="Event&lt;-Dungeon" style="stroke: #A80036; stroke-width: 1.0;"/><polygon fill="#A80036" points="768.484,294.4899,758.6583,293.8154,763.7866,296.2029,761.3991,301.3312,768.484,294.4899" style="stroke: #A80036; stroke-width: 1.0;"/><!--MD5=[88a4c2ed0ff86dc6abf331ce1c15fe55]
reverse link EventListener to Goal--><path d="M459.3153,638.0948 C410.831,659.1977 349.7459,685.7851 307.7524,704.0628 " fill="none" id="EventListener&lt;-Goal" style="stroke: #A80036; stroke-width: 1.0; stroke-dasharray: 7.0,7.0;"/><polygon fill="none" points="456.7511,631.5766,477.883,630.0131,462.3384,644.4133,456.7511,631.5766" style="stroke: #A80036; stroke-width: 1.0;"/><!--MD5=[f7c74f22f6ed4e26721b433fec2c8e34]
reverse link Goal to BasicGoal--><path d="M220.0106,771.8899 C207.5322,786.9297 194.1925,803.0074 183.6089,815.7634 " fill="none" id="Goal&lt;-BasicGoal" style="stroke: #A80036; stroke-width: 1.0;"/><polygon fill="none" points="214.8839,767.1061,233.0417,756.1839,225.6583,776.0456,214.8839,767.1061" style="stroke: #A80036; stroke-width: 1.0;"/><!--MD5=[53489d5911ca690e99d26095e6c379c0]
reverse link Goal to ComplexGoal--><path d="M277.1892,775.2653 C282.462,789.3058 287.9643,803.9574 292.3981,815.7634 " fill="none" id="Goal&lt;-ComplexGoal" style="stroke: #A80036; stroke-width: 1.0;"/><polygon fill="none" points="270.5016,777.3681,270.0232,756.1839,283.6078,772.4461,270.5016,777.3681" style="stroke: #A80036; stroke-width: 1.0;"/><!--MD5=[b613f52556e5a518dbb43009f77c6450]
link ComplexGoal to GoalCompletionStrategy--><path d="M301.5,864.2373 C301.5,880.3565 301.5,901.6212 301.5,918.6911 " fill="none" id="ComplexGoal-&gt;GoalCompletionStrategy" style="stroke: #A80036; stroke-width: 1.0;"/><polygon fill="#A80036" points="301.5,923.8436,305.5,914.8436,301.5,918.8436,297.5,914.8436,301.5,923.8436" style="stroke: #A80036; stroke-width: 1.0;"/><!--MD5=[a086b7f627b1ca5536e3e0604a8fa4dd]
reverse link GoalCompletionStrategy to AndCompletionStrategy--><path d="M237.4654,981.5716 C206.3295,997.8952 169.6217,1017.1401 141.3335,1031.9708 " fill="none" id="GoalCompletionStrategy&lt;-AndCompletionStrategy" style="stroke: #A80036; stroke-width: 1.0; stroke-dasharray: 7.0,7.0;"/><polygon fill="none" points="234.5624,975.1899,255.526,972.1029,241.063,987.5891,234.5624,975.1899" style="stroke: #A80036; stroke-width: 1.0;"/><!--MD5=[58d35307c504d35cfdad0293d7f81521]
reverse link GoalCompletionStrategy to OrCompletionStrategy--><path d="M302.7303,992.2911 C303.106,1005.8171 303.5051,1020.1835 303.829,1031.8436 " fill="none" id="GoalCompletionStrategy&lt;-OrCompletionStrategy" style="stroke: #A80036; stroke-width: 1.0; stroke-dasharray: 7.0,7.0;"/><polygon fill="none" points="295.7314,992.424,302.1733,972.2373,309.726,992.0352,295.7314,992.424" style="stroke: #A80036; stroke-width: 1.0;"/><!--MD5=[a9f88ee49aa8bdd18310cd7321a997e7]
reverse link Entity to Door--><path d="M755.2717,769.5131 C753.7676,785.1695 752.1292,802.2233 750.8408,815.6343 " fill="none" id="Entity&lt;-Door" style="stroke: #A80036; stroke-width: 1.0;"/><polygon fill="none" points="748.3134,768.7419,757.194,749.503,762.2493,770.0807,748.3134,768.7419" style="stroke: #A80036; stroke-width: 1.0;"/><!--MD5=[32477597bd96a39222181a120e944f26]
link Door to DoorState--><path d="M747.3779,864.2373 C746.6316,880.3565 745.6472,901.6212 744.8569,918.6911 " fill="none" id="Door-&gt;DoorState" style="stroke: #A80036; stroke-width: 1.0;"/><polygon fill="#A80036" points="744.6184,923.8436,749.0304,915.0383,744.8497,918.849,741.039,914.6682,744.6184,923.8436" style="stroke: #A80036; stroke-width: 1.0;"/><!--MD5=[61a1adf88c3459af528a7c3450e10b57]
reverse link DoorState to OpenDoorState--><path d="M688.6511,983.0514 C663.6926,999.0012 634.7818,1017.4767 612.3003,1031.8436 " fill="none" id="DoorState&lt;-OpenDoorState" style="stroke: #A80036; stroke-width: 1.0; stroke-dasharray: 7.0,7.0;"/><polygon fill="none" points="684.951,977.1087,705.5731,972.2373,692.4898,988.9055,684.951,977.1087" style="stroke: #A80036; stroke-width: 1.0;"/><!--MD5=[73a74bd778ae5566f4a7eca35e4bd53c]
reverse link DoorState to ClosedDoorState--><path d="M743.5,992.2911 C743.5,1005.8171 743.5,1020.1835 743.5,1031.8436 " fill="none" id="DoorState&lt;-ClosedDoorState" style="stroke: #A80036; stroke-width: 1.0; stroke-dasharray: 7.0,7.0;"/><polygon fill="none" points="736.5001,992.2373,743.5,972.2373,750.5001,992.2373,736.5001,992.2373" style="stroke: #A80036; stroke-width: 1.0;"/><!--MD5=[865be20b675915cac31db4d9d4c9b265]
reverse link Entity to Enemy--><path d="M801.3548,762.9404 C820.7066,780.2512 843.1396,800.3183 860.2615,815.6343 " fill="none" id="Entity&lt;-Enemy" style="stroke: #A80036; stroke-width: 1.0;"/><polygon fill="none" points="796.5724,768.0544,786.333,749.503,805.9063,757.6199,796.5724,768.0544" style="stroke: #A80036; stroke-width: 1.0;"/><!--MD5=[b733e1ce14d138688030f65bc50af1da]
link Enemy to EnemyState--><path d="M894.6814,864.2373 C899.4575,880.3565 905.7581,901.6212 910.8159,918.6911 " fill="none" id="Enemy-&gt;EnemyState" style="stroke: #A80036; stroke-width: 1.0;"/><polygon fill="#A80036" points="912.3425,923.8436,913.6207,914.078,910.9219,919.0496,905.9503,916.3509,912.3425,923.8436" style="stroke: #A80036; stroke-width: 1.0;"/><!--MD5=[806e7ffb7bee28f80df3ff5e601229f8]
reverse link EnemyState to ChasePlayerState--><path d="M919.5,992.2911 C919.5,1005.8171 919.5,1020.1835 919.5,1031.8436 " fill="none" id="EnemyState&lt;-ChasePlayerState" style="stroke: #A80036; stroke-width: 1.0; stroke-dasharray: 7.0,7.0;"/><polygon fill="none" points="912.5001,992.2373,919.5,972.2373,926.5001,992.2373,912.5001,992.2373" style="stroke: #A80036; stroke-width: 1.0;"/><!--MD5=[9ec5ff29aaa8e7e91102c1e2d814c521]
reverse link EnemyState to FleePlayerState--><path d="M975.3226,983.0514 C1000.7241,999.0012 1030.1481,1017.4767 1053.0287,1031.8436 " fill="none" id="EnemyState&lt;-FleePlayerState" style="stroke: #A80036; stroke-width: 1.0; stroke-dasharray: 7.0,7.0;"/><polygon fill="none" points="971.3156,988.801,958.1002,972.2373,978.7604,976.9445,971.3156,988.801" style="stroke: #A80036; stroke-width: 1.0;"/><!--MD5=[62472ba2ab15b62cd9607afdad261230]
@startuml
class DungeonApplication {
  + showScene()
}

DungeonApplication *- - Controller
DungeonApplication <- - Controller

abstract class Controller implements Observable

interface Observable {
 + notify() 
}

note right of Observable
  Observer Pattern
end note

class DungeonController implements Controller

DungeonController *- - Dungeon

class Dungeon implements EventListener

Dungeon *- - Entity
Dungeon *- - Inventory
Dungeon *- - PortalNetwork
Dungeon *- - Goal
Dungeon *- - EventManager

abstract class Entity implements EventListener

Inventory o- - CollectableEntity
class CollectableEntity extends Entity

class EventManager
EventManager o- - EventListener

abstract class Event {
  + accept(EventListener)
}

interface EventListener {
 + handle(Event)
}

Event - - - EventListener
Event <- - Entity
Event <- - Dungeon

note left of Event
  Visitor Pattern
end note

abstract class Goal implements EventListener {
 + isComplete()
}

note left of Goal
  Composite Pattern
end note
  
abstract class BasicGoal extends Goal
class ComplexGoal extends Goal

ComplexGoal - -> GoalCompletionStrategy
interface GoalCompletionStrategy
class AndCompletionStrategy implements GoalCompletionStrategy
class OrCompletionStrategy implements GoalCompletionStrategy

note left of GoalCompletionStrategy
  Strategy Pattern
end note

class Door extends Entity
Door - -> DoorState
interface DoorState
class OpenDoorState implements DoorState
class ClosedDoorState implements DoorState

note left of DoorState
  State Pattern
end note

class Enemy extends Entity
Enemy - -> EnemyState
class ChasePlayerState implements EnemyState
class FleePlayerState implements EnemyState

note right of EnemyState
  State Pattern
end note
@enduml

PlantUML version 1.2019.11(Sun Sep 22 10:02:15 UTC 2019)
(GPL source distribution)
Java Runtime: OpenJDK Runtime Environment
JVM: OpenJDK 64-Bit Server VM
Java Version: 1.8.0_222-heroku-b10
Operating System: Linux
Default Encoding: UTF-8
Language: en
Country: US
--></g></svg>